<svg width="36" height="36" viewBox="0 0 36 36" version="1.1" xmlns="http://www.w3.org/2000/svg" xmlns:xlink="http://www.w3.org/1999/xlink">
<title>design</title>
<desc>Created using Figma</desc>
<g id="Canvas" transform="translate(78 1154)">
<g id="design">
<g id="icon bk">
<use xlink:href="#path0_fill" transform="translate(-78 -1154)" fill="#774CBF"/>
</g>
<g id="Group">
<g id="Vector">
<use xlink:href="#path1_fill" transform="translate(-72 -1144)" fill="#FFFFFF"/>
</g>
<g id="Vector">
<use xlink:href="#path2_fill" transform="translate(-57.5 -1139.6)" fill="#FFFFFF"/>
</g>
</g>
</g>
</g>
<defs>
<path id="path0_fill" d="M 36 18C 36 27.9411 27.9411 36 18 36C 8.05887 36 0 27.9411 0 18C 0 8.05887 8.05887 0 18 0C 27.9411 0 36 8.05887 36 18Z"/>
<path id="path1_fill" d="M 11.4 14L 9.9 10.3L 3.4 10.3L 1.9 14L 0 14L 5.7 0L 7.6 0L 13.3 14L 11.4 14ZM 6.6 2.3L 4 8.7L 9.2 8.7L 6.6 2.3Z"/>
<path id="path2_fill" d="M 10.7 9.1C 10.7 9.1 9.8 9.8 8.5 9.8C 7.8 9.8 7.2 9.5 7 8.7C 6.4 9.2 5.2 9.9 3.3 9.9C 1.3 9.9 0 9.1 0 7.4C 0 5.8 1.4 4.8 5.4 4.8C 6.1 4.8 6.7 4.9 7 5L 7 3.3C 7 2 6.3 1.4 4.2 1.4C 2.6 1.4 1 2 1 2L 0.5 0.6C 0.5 0.6 2.4 9.53674e-08 4.4 9.53674e-08C 7.1 9.53674e-08 8.5 1.1 8.5 3L 8.5 8C 8.5 8.4 8.6 8.5 9 8.5C 9.6 8.5 10.4 8.2 10.4 8.2L 10.7 9.1ZM 6.9 6.1C 6.6 6.1 6.2 6 5.3 6C 2.5 6 1.5 6.5 1.5 7.3C 1.5 8.2 2.4 8.5 3.5 8.5C 5.2 8.5 6.3 7.8 6.9 7.4L 6.9 6.1Z"/>
</defs>
</svg>
