<svg width="42" height="14" viewBox="0 0 42 14" version="1.1" xmlns="http://www.w3.org/2000/svg" xmlns:xlink="http://www.w3.org/1999/xlink">
<title>difficulty level</title>
<desc>Created using Figma</desc>
<g id="Canvas" transform="translate(-461 -1374)">
<g id="difficulty level">
<g id="expert">
<g id="Vector">
<use xlink:href="#path0_fill" transform="matrix(-1 0 0 1 502.331 1374)" fill="#000000" fill-opacity="0.4"/>
</g>
<g id="Vector">
<use xlink:href="#path1_fill" transform="matrix(-1 0 0 1 489.193 1374)" fill="#000000" fill-opacity="0.4"/>
</g>
<g id="Vector">
<use xlink:href="#path0_fill" transform="matrix(-1 0 0 1 475.014 1374)" fill="#000000" fill-opacity="0.4"/>
</g>
</g>
</g>
</g>
<defs>
<path id="path0_fill" d="M 13.4162 10.5205L 8.74395 5.84822C 9.26164 4.25194 8.84668 2.4926 7.65151 1.29743C 6.36503 0.0101372 4.34726 -0.359176 2.6825 0.369667C 2.55939 0.423474 2.47053 0.535165 2.44607 0.667237C 2.4208 0.800124 2.46237 0.935457 2.55776 1.03166L 4.94892 3.42363L 3.32737 5.04355L 0.976971 2.69397C 0.87914 2.59696 0.740545 2.55701 0.605212 2.5831C 0.470694 2.61082 0.359004 2.70539 0.309273 2.83338C -0.340489 4.49488 0.0524661 6.38139 1.31041 7.63934C 2.48928 8.81821 4.2853 9.24133 5.86201 8.73179L 10.5343 13.4032C 10.9191 13.7888 11.4311 14 11.9756 14C 12.5202 14 13.0322 13.788 13.417 13.4032C 13.8018 13.0184 14.0138 12.5064 14.0138 11.9618C 14.013 11.4181 13.801 10.9061 13.4162 10.5205Z"/>
<path id="path1_fill" d="M 13.4162 10.5205L 8.74395 5.84822C 9.26164 4.25194 8.84668 2.4926 7.6515 1.29743C 6.36502 0.0101372 4.34726 -0.359176 2.68249 0.369667C 2.55939 0.423474 2.47053 0.535165 2.44607 0.667237C 2.4208 0.800124 2.46237 0.935457 2.55776 1.03166L 4.94892 3.42363L 3.32737 5.04355L 0.976971 2.69397C 0.87914 2.59696 0.740545 2.55701 0.605212 2.5831C 0.470694 2.61082 0.359004 2.70539 0.309273 2.83338C -0.340489 4.49488 0.0524661 6.38139 1.31041 7.63934C 2.48928 8.81821 4.2853 9.24133 5.86201 8.73179L 10.5343 13.4032C 10.9191 13.7888 11.431 14 11.9756 14C 12.5202 14 13.0322 13.788 13.417 13.4032C 13.8018 13.0184 14.0138 12.5064 14.0138 11.9618C 14.013 11.4181 13.801 10.9061 13.4162 10.5205Z"/>
</defs>
</svg>
