<svg width="36" height="36" viewBox="0 0 36 36" version="1.1" xmlns="http://www.w3.org/2000/svg" xmlns:xlink="http://www.w3.org/1999/xlink">
<title>modules</title>
<desc>Created using Figma</desc>
<g id="Canvas" transform="translate(-62 1154)">
<g id="modules">
<g id="icon bk">
<use xlink:href="#path0_fill" transform="translate(62 -1154)" fill="#1EACB0"/>
</g>
<g id="Group">
<g id="Vector">
<use xlink:href="#path1_fill" transform="translate(68 -1141)" fill="#FFFFFF"/>
</g>
<g id="Vector">
<use xlink:href="#path2_fill" transform="translate(76.1 -1145)" fill="#FFFFFF"/>
</g>
<g id="Vector">
<use xlink:href="#path3_fill" transform="translate(86.6 -1141)" fill="#FFFFFF"/>
</g>
</g>
</g>
</g>
<defs>
<path id="path0_fill" d="M 36 18C 36 27.9411 27.9411 36 18 36C 8.05887 36 0 27.9411 0 18C 0 8.05887 8.05887 0 18 0C 27.9411 0 36 8.05887 36 18Z"/>
<path id="path1_fill" d="M 0 6.5L 0 3.3L 6.6 0L 6.6 3.2L 3.1 4.9L 6.6 6.6L 6.6 9.7L 0 6.5Z"/>
<path id="path2_fill" d="M 3.8147e-07 19L 5.5 0L 9 0L 3.5 19L 3.8147e-07 19Z"/>
<path id="path3_fill" d="M 3.8147e-07 9.7L 3.8147e-07 6.6L 3.5 4.9L 3.8147e-07 3.2L 3.8147e-07 0L 6.6 3.3L 6.6 6.5L 3.8147e-07 9.7Z"/>
</defs>
</svg>
