<svg width="36" height="36" viewBox="0 0 36 36" version="1.1" xmlns="http://www.w3.org/2000/svg" xmlns:xlink="http://www.w3.org/1999/xlink">
<title>theming</title>
<desc>Created using Figma</desc>
<g id="Canvas" transform="translate(8 1154)">
<g id="theming">
<g id="icon">
<g id="icon bk">
<use xlink:href="#path0_fill" transform="translate(-8 -1154)" fill="#1D84BF"/>
</g>
<g id="Group">
<g id="Vector">
<use xlink:href="#path1_fill" transform="translate(0 -1146)" fill="#FFFFFF"/>
</g>
<g id="Vector">
<use xlink:href="#path2_fill" transform="translate(13.1 -1146)" fill="#FFFFFF"/>
</g>
</g>
</g>
<g id="Group">
<g id="Vector">
<use xlink:href="#path1_fill" transform="translate(0 -1146)" fill="#FFFFFF"/>
</g>
<g id="Vector">
<use xlink:href="#path2_fill" transform="translate(13.1 -1146)" fill="#FFFFFF"/>
</g>
</g>
</g>
</g>
<defs>
<path id="path0_fill" d="M 36 18C 36 27.9411 27.9411 36 18 36C 8.05887 36 0 27.9411 0 18C 0 8.05887 8.05887 0 18 0C 27.9411 0 36 8.05887 36 18Z"/>
<path id="path1_fill" d="M 7.2 20.7C 4.1 20.7 1.7 19.7 1.7 15.6L 1.7 13.1C 1.7 12.1 1 11.9 0.4 11.9L 0 11.9L 0 8.7L 0.4 8.7C 1 8.7 1.7 8.4 1.7 7.4L 1.7 5.2C 1.7 1.1 4.1 0 7.2 0L 7.2 3.2C 5.9 3.2 5.2 3.9 5.2 5.3L 5.2 8.3C 5.2 9.8 4.1 10.1 3.8 10.2C 4.1 10.3 5.2 10.6 5.2 12.1L 5.2 15.4C 5.2 17 6 17.5 7.2 17.5L 7.2 20.7Z"/>
<path id="path2_fill" d="M 3.8147e-07 17.5C 1.3 17.5 2 17 2 15.4L 2 12.1C 2 10.6 3.1 10.3 3.4 10.2C 3.1 10.1 2 9.8 2 8.3L 2 5.3C 2 3.9 1.2 3.2 3.8147e-07 3.2L 3.8147e-07 0C 3.1 0 5.5 1.1 5.5 5.2L 5.5 7.5C 5.5 8.5 6.2 8.8 6.8 8.8L 7.2 8.8L 7.2 11.9L 6.8 11.9C 6.2 11.9 5.5 12.2 5.5 13.1L 5.5 15.6C 5.5 19.6 3.1 20.7 3.8147e-07 20.7L 3.8147e-07 17.5Z"/>
</defs>
</svg>
